<?xml version="1.0" standalone="no"?>
<!DOCTYPE svg PUBLIC "-//W3C//DTD SVG 20010904//EN"
 "http://www.w3.org/TR/2001/REC-SVG-20010904/DTD/svg10.dtd">
<svg version="1.0" xmlns="http://www.w3.org/2000/svg"
 width="1024.000000pt" height="1024.000000pt" viewBox="0 0 1024.000000 1024.000000"
 preserveAspectRatio="xMidYMid meet">

<g transform="translate(0.000000,1024.000000) scale(0.100000,-0.100000)"
fill="#000000" stroke="none">
<path d="M4847 8316 c5 -32 3 -34 -28 -41 -19 -4 -47 -14 -64 -23 -16 -8 -45
-17 -64 -18 -45 -4 -123 -35 -138 -54 -10 -13 -15 -13 -34 -1 -12 7 -47 22
-76 32 -54 18 -54 18 -256 -11 -231 -33 -265 -40 -402 -82 -154 -48 -283 -106
-360 -164 -96 -73 -125 -98 -125 -110 0 -5 -9 -17 -19 -26 -10 -9 -26 -40 -35
-70 -9 -29 -22 -74 -30 -100 l-15 -48 31 0 c36 0 33 -9 -6 -16 -14 -2 -131
-31 -259 -63 -162 -41 -259 -60 -322 -64 -63 -4 -113 -14 -165 -33 -64 -23
-85 -38 -145 -98 -91 -93 -141 -169 -159 -244 -8 -35 -15 -122 -15 -204 -2
-136 -7 -188 -18 -188 -3 0 -45 31 -92 68 -155 122 -382 293 -418 314 -22 14
-38 17 -44 11 -5 -5 -23 -63 -39 -129 -72 -296 -121 -509 -141 -623 l-23 -124
27 -21 c15 -12 27 -27 27 -33 0 -26 137 41 177 86 14 16 26 22 31 16 9 -9 62
-168 62 -183 0 -9 -47 -29 -90 -37 -117 -23 -275 -101 -292 -144 -5 -15 -8
-106 -7 -221 l3 -195 -32 -55 c-18 -30 -44 -91 -59 -135 -24 -70 -27 -95 -27
-205 1 -109 4 -136 29 -210 47 -144 74 -187 189 -308 39 -40 73 -76 76 -80 12
-16 304 -162 332 -166 3 -1 10 -4 14 -9 4 -4 20 -7 35 -7 19 0 32 -7 40 -21 9
-17 13 -19 20 -8 8 12 10 12 18 0 6 -9 10 -10 13 -1 2 8 35 4 117 -14 63 -14
137 -26 165 -26 l51 0 28 -70 c33 -80 39 -84 208 -141 51 -17 99 -35 108 -39
35 -19 100 -46 401 -163 244 -95 278 -102 315 -67 21 20 23 20 61 3 27 -11 34
-18 22 -21 -10 -2 -33 -18 -51 -36 -34 -32 -34 -33 -13 -46 20 -13 20 -13 1
-20 -11 -4 -26 -5 -32 -3 -7 3 -13 0 -13 -6 0 -6 -7 -11 -15 -11 -8 0 -16 -4
-16 -10 -1 -5 -2 -14 -3 -19 -2 -18 -16 -24 -16 -8 0 11 -8 17 -24 17 -13 0
-32 3 -42 7 -14 5 -12 0 7 -28 28 -39 40 -50 51 -43 4 3 5 -2 2 -10 -8 -20 0
-20 20 0 14 14 16 14 16 0 0 -9 6 -13 15 -10 13 5 13 8 -1 21 -22 22 -10 28
15 7 11 -10 18 -22 15 -28 -3 -6 2 -2 12 9 14 17 16 17 11 3 -4 -11 -1 -19 6
-20 7 0 17 -2 22 -2 6 -1 16 -5 22 -9 7 -4 22 -3 34 4 16 8 27 8 44 -1 18 -9
31 -10 55 -2 20 7 28 8 24 1 -3 -5 11 -3 31 5 44 19 48 19 40 6 -3 -5 0 -10 7
-10 10 0 10 -2 -1 -9 -18 -12 2 -23 26 -14 10 3 22 11 26 17 6 7 7 4 3 -6 -4
-12 4 -20 29 -28 30 -10 39 -9 62 7 30 21 52 18 120 -14 17 -9 49 -19 70 -23
21 -4 76 -25 123 -45 136 -60 161 -63 217 -32 l48 25 100 -42 c55 -24 136 -60
180 -81 79 -37 158 -72 316 -140 44 -19 89 -35 99 -35 19 0 297 121 515 225
l120 57 66 -21 c36 -12 73 -21 83 -21 18 0 101 34 216 88 75 35 171 75 250
104 52 18 91 34 275 109 44 18 98 36 120 39 l40 7 -32 8 c-18 4 -33 9 -33 11
0 1 4 14 10 28 7 19 17 26 35 26 15 0 24 4 21 9 -3 5 -15 7 -25 4 -11 -3 -27
-1 -37 5 -12 7 -4 9 32 6 57 -4 134 18 269 78 106 47 198 81 191 69 -3 -5 -33
-19 -66 -31 -33 -12 -60 -26 -60 -31 0 -5 -6 -6 -14 -3 -7 3 -29 -4 -47 -15
-19 -12 -29 -21 -24 -21 6 0 11 -9 11 -20 0 -11 -3 -20 -7 -20 -4 0 -14 -3
-23 -6 -11 -4 -16 -1 -16 11 0 9 -5 13 -10 10 -6 -4 -8 -10 -5 -15 3 -4 -1
-10 -9 -13 -9 -3 -12 -15 -9 -31 3 -15 1 -26 -6 -26 -6 0 -11 -5 -11 -11 0 -6
6 -9 14 -6 11 4 11 1 2 -19 -9 -21 -13 -22 -22 -9 -10 13 -12 13 -17 -4 -6
-25 27 -38 49 -20 9 8 18 9 22 3 4 -5 15 -10 25 -10 12 -1 17 6 17 25 0 18 3
22 9 12 5 -8 11 -9 15 -3 3 6 -1 17 -10 26 -14 15 -13 17 10 26 15 5 26 13 25
17 -3 18 14 52 28 58 14 5 13 8 -3 28 -15 17 -15 19 -2 8 19 -14 42 -6 32 11
-5 7 2 9 20 6 19 -4 26 -2 22 7 -2 7 1 12 7 12 45 -1 59 4 53 19 -3 8 -2 13 3
10 5 -3 15 1 22 10 10 13 10 17 -1 24 -15 9 65 48 118 57 18 3 39 14 46 24 7
10 59 39 115 63 137 59 140 63 170 171 11 44 8 42 296 166 189 81 309 135 437
197 67 33 159 77 203 97 44 21 117 60 162 88 100 61 100 59 143 337 17 107 35
214 40 238 6 23 10 82 10 130 1 48 9 146 19 219 10 73 16 149 14 170 -2 21 -5
59 -7 85 -2 26 -9 56 -17 66 -41 56 -113 142 -118 142 -4 0 -26 26 -51 58
-129 166 -370 422 -397 422 -29 0 -13 53 27 92 23 21 45 38 50 38 15 0 113 65
137 91 34 38 45 75 27 94 -9 8 -22 15 -30 15 -8 0 -14 5 -14 10 0 6 5 10 10
10 7 0 9 25 6 73 -5 73 -58 240 -92 292 -12 19 -14 38 -9 87 6 55 -30 425 -51
531 -7 33 -37 36 -92 8 -20 -10 -78 -35 -128 -55 -51 -19 -154 -65 -231 -101
-124 -58 -148 -66 -219 -71 -172 -13 -286 -67 -382 -182 -56 -67 -73 -109 -70
-179 3 -77 -8 -167 -21 -171 -6 -2 -11 -15 -11 -30 0 -23 -1 -24 -13 -8 -11
15 -15 8 -30 -53 -19 -73 -37 -98 -59 -85 -18 11 -35 15 -88 17 -25 1 -51 6
-57 10 -7 5 -18 5 -25 1 -6 -4 -17 1 -25 11 -12 18 -13 18 -13 -1 0 -12 -7
-21 -15 -21 -8 0 -15 2 -15 3 0 10 108 269 156 374 31 69 74 171 95 226 38
102 38 102 24 155 -32 115 -105 424 -105 441 0 10 -2 18 -5 18 -5 0 -136 -91
-280 -195 -49 -36 -107 -76 -128 -90 l-37 -25 -54 40 c-141 107 -439 187 -773
207 -96 6 -103 5 -145 -20 -23 -14 -54 -37 -67 -51 -23 -24 -29 -26 -118 -25
-76 1 -98 -2 -113 -16 -18 -17 -23 -15 -97 25 -43 24 -96 55 -118 70 -117 78
-274 146 -347 149 -25 1 -26 -2 -21 -33z m2387 -570 c-6 -29 -32 -94 -126
-316 -22 -52 -56 -133 -75 -180 -35 -86 -54 -126 -137 -302 -25 -53 -46 -99
-46 -102 0 -6 -50 -120 -80 -181 l-19 -40 4 45 c5 58 74 225 199 483 25 50 48
104 51 119 4 16 11 26 15 23 4 -2 5 6 3 19 -3 14 5 39 20 62 14 22 42 89 62
149 21 61 49 133 63 160 22 45 22 48 4 32 -11 -10 -37 -23 -58 -28 -66 -18
-104 -40 -104 -60 0 -28 -56 -199 -110 -334 -107 -268 -238 -565 -240 -543 0
3 14 37 31 75 17 37 44 100 59 138 141 353 194 487 215 551 29 85 32 164 11
263 l-14 64 65 133 c36 74 70 131 75 128 6 -4 7 2 3 17 -5 17 -4 21 4 14 6 -6
16 -38 22 -70 6 -33 15 -67 20 -75 8 -12 9 -11 5 5 -3 11 -10 46 -15 79 -6 32
-16 65 -22 72 -6 8 -8 22 -5 31 5 12 4 15 -3 8 -41 -42 -379 -852 -472 -1131
-51 -154 -51 -155 -35 -194 18 -46 19 -53 7 -46 -5 3 -5 -13 0 -37 10 -56 19
-78 39 -102 22 -25 32 -55 20 -55 -6 0 -10 7 -10 15 0 8 -7 15 -15 15 -9 0
-17 6 -19 13 -3 6 -13 35 -23 62 -18 50 -18 50 -24 20 -4 -16 -7 -49 -8 -72
-1 -40 -20 -70 -29 -45 -2 7 -7 10 -11 8 -3 -2 -11 7 -18 20 -9 19 -8 24 3 24
8 0 17 -7 20 -15 9 -24 24 -17 22 9 -1 14 -6 22 -10 20 -4 -3 -8 -1 -8 4 0 5
-17 5 -40 -1 -42 -12 -54 -27 -21 -27 26 0 34 -15 21 -40 -9 -17 -8 -20 7 -21
11 0 13 -3 6 -6 -16 -6 -17 -44 -1 -41 6 2 14 -5 16 -15 2 -10 0 -17 -5 -16
-22 5 -132 -15 -127 -23 3 -5 12 -7 20 -4 8 3 14 1 14 -3 0 -5 -7 -12 -16 -15
-11 -4 -14 -13 -10 -31 4 -14 2 -25 -3 -25 -10 0 -25 50 -17 58 3 3 -1 10 -10
16 -9 7 -15 28 -16 54 0 23 -3 42 -6 42 -3 0 -16 -10 -28 -21 -32 -30 -73 -20
-159 36 -93 62 -104 63 -170 26 -30 -17 -61 -31 -69 -31 -8 0 -16 -7 -20 -15
-4 -12 -31 -15 -155 -15 -115 0 -150 -3 -154 -13 -3 -8 -42 -64 -87 -125 l-82
-112 -72 4 c-39 2 -151 4 -248 5 l-177 1 -88 121 -88 122 -200 -5 c-110 -3
-186 -2 -170 2 17 4 46 9 65 10 32 2 33 3 10 9 -16 5 -24 13 -22 24 2 11 -7
18 -32 23 -28 5 -92 43 -75 44 2 0 101 7 219 15 118 8 224 15 236 15 15 0 45
-32 108 -115 48 -63 91 -115 94 -115 4 0 93 -3 197 -6 l190 -6 90 117 90 117
195 -6 194 -7 77 77 c90 89 81 90 160 -17 41 -55 54 -66 72 -61 30 7 32 11 78
157 22 72 105 324 184 560 79 237 146 445 150 463 8 38 17 46 273 233 l186
136 58 -236 c41 -165 57 -244 52 -265z m-2039 365 c1 -16 -4 -21 -22 -21 -23
0 -29 14 -17 44 8 22 37 5 39 -23z m3259 -163 c12 -76 46 -382 46 -417 0 -34
0 -34 -21 -15 -12 10 -24 18 -28 17 -8 -3 -1 37 10 59 13 25 11 41 -5 35 -8
-3 -24 2 -35 12 -24 21 -27 76 -6 131 14 39 11 45 34 -60 10 -44 10 -44 6 -5
-3 22 -5 73 -5 113 0 41 -4 72 -10 72 -5 0 -10 -4 -10 -9 0 -12 -78 -138 -116
-186 -36 -47 -47 -65 -40 -65 3 0 19 18 35 40 l28 40 -3 -48 -4 -47 14 53 c18
70 29 79 21 17 -6 -42 -4 -54 14 -75 17 -21 20 -22 21 -7 0 12 6 17 18 15 12
-2 17 -14 19 -41 0 -20 -1 -37 -4 -37 -2 0 -19 11 -37 25 -33 25 -76 25 -76 0
0 -14 -38 -27 -53 -18 -5 3 -4 10 2 16 6 6 11 16 11 21 0 24 -58 -56 -64 -88
-4 -20 -11 -36 -16 -36 -6 0 -10 -4 -10 -10 0 -5 4 -10 10 -10 17 0 49 -33 43
-43 -4 -6 1 -8 10 -4 14 5 17 0 17 -28 0 -18 -5 -37 -10 -40 -6 -4 -8 -10 -5
-15 8 -13 -35 -40 -65 -41 l-25 -1 25 -9 c19 -6 15 -7 -15 -3 -23 3 -51 16
-66 30 -14 13 -29 24 -35 24 -5 0 -36 14 -68 30 -46 24 -53 30 -33 30 14 0 29
-4 32 -10 3 -5 12 -10 18 -9 9 0 8 2 -1 6 -17 7 -5 23 18 23 22 0 32 -23 17
-39 -9 -9 -8 -11 6 -6 9 4 17 11 17 16 0 5 9 9 20 9 13 0 18 5 14 15 -5 11 1
15 22 16 16 0 23 3 17 6 -7 2 -13 13 -13 24 0 11 -7 19 -16 19 -14 0 -15 2 -3
17 13 15 12 15 -8 4 -13 -7 -23 -8 -23 -2 0 5 21 20 46 33 25 12 41 24 36 26
-13 4 -132 -59 -195 -104 -70 -50 -77 -47 -77 34 1 37 9 114 19 172 19 105 18
131 -2 111 -6 -6 -23 -11 -37 -11 -14 0 -45 -9 -68 -20 -22 -11 -52 -20 -66
-20 -14 0 -27 -4 -30 -9 -3 -4 -19 -11 -34 -14 -42 -8 -142 -106 -142 -137 1
-23 2 -23 14 6 8 18 20 35 28 40 10 6 10 4 -1 -9 -32 -40 0 -172 82 -337 12
-24 21 -50 19 -57 -1 -7 10 -52 27 -100 34 -104 48 -183 31 -183 -7 0 -9 -8
-4 -22 6 -21 5 -21 -10 -9 -26 22 -34 42 -46 117 -14 90 -33 129 -113 243 -37
52 -63 97 -58 100 15 10 20 174 6 207 -13 28 -13 28 -14 -25 -1 -60 -6 -61
-26 -4 -11 32 -11 42 2 66 19 38 11 45 -15 13 -20 -26 -32 -33 -32 -18 0 17
74 94 113 119 53 33 151 61 257 74 47 5 94 11 105 12 11 2 69 27 130 56 60 29
162 75 226 101 63 26 128 55 145 63 40 22 41 22 48 -25z m-3170 -9 c5 -4 -1
-5 -14 -2 -15 4 -21 2 -16 -5 3 -6 2 -13 -4 -17 -5 -3 -10 -2 -10 4 0 5 -3 17
-7 26 -5 14 -2 16 18 10 13 -4 28 -11 33 -16z m75 -5 c13 -12 -8 -10 -29 2
l-25 15 25 -7 c14 -3 27 -8 29 -10z m132 -27 c-11 -29 -16 -31 -46 -16 -17 8
-16 9 6 4 23 -4 27 -1 34 28 4 17 9 27 11 21 3 -6 0 -23 -5 -37z m-101 13 c0
-5 -4 -10 -10 -10 -5 0 -10 5 -10 10 0 6 5 10 10 10 6 0 10 -4 10 -10z m-49
-40 c9 -10 20 -16 24 -12 5 4 6 2 2 -3 -3 -6 -2 -17 4 -25 7 -13 9 -12 9 3 0
9 6 17 13 18 6 0 22 2 35 5 13 2 22 -1 22 -9 0 -20 38 -47 66 -47 14 0 23 -4
19 -9 -6 -10 28 -33 56 -38 11 -1 21 9 29 28 7 16 15 28 17 25 6 -6 -25 -92
-46 -126 -15 -26 -191 -199 -203 -200 -3 0 -18 21 -33 46 -15 26 -40 60 -56
76 l-28 30 -17 -61 c-10 -34 -20 -60 -24 -59 -20 9 -164 174 -176 204 -8 19
-17 61 -21 94 -5 54 -4 60 13 60 33 0 129 -29 132 -40 7 -21 54 -70 62 -65 4
3 11 -2 14 -11 4 -10 14 -14 26 -11 11 3 23 1 26 -4 3 -5 0 -9 -5 -9 -6 0 -11
-5 -11 -11 0 -6 15 0 33 14 26 20 32 31 31 60 -1 47 -27 84 -67 97 l-32 10 35
-5 c19 -3 42 -14 51 -25z m-877 -6 c3 -8 2 -12 -4 -9 -6 3 -10 10 -10 16 0 14
7 11 14 -7z m286 7 c0 -5 -7 -12 -16 -15 -14 -5 -15 -4 -4 9 14 17 20 19 20 6z
m447 -43 c-3 -7 -5 -2 -5 12 0 14 2 19 5 13 2 -7 2 -19 0 -25z m551 -9 c-6
-19 -18 -43 -26 -54 -16 -22 -15 -21 12 48 21 54 32 58 14 6z m-1239 -28 c35
-53 77 -98 66 -68 -6 14 0 16 41 14 45 -2 49 0 54 23 4 20 12 26 37 28 32 2
32 1 21 -24 -9 -20 -9 -27 2 -34 9 -5 11 -21 7 -48 -3 -23 -1 -42 3 -44 5 -2
11 -20 15 -40 8 -40 -2 -49 -27 -25 -7 7 -36 27 -64 45 -64 40 -145 125 -173
180 -29 56 -20 53 18 -7z m201 19 c-8 -5 -19 -10 -25 -10 -5 0 -3 5 5 10 8 5
20 10 25 10 6 0 3 -5 -5 -10z m525 -29 c-6 -5 -25 10 -25 20 0 5 6 4 14 -3 8
-7 12 -15 11 -17z m-1587 -182 c44 -22 95 -54 113 -70 23 -20 11 -14 -36 16
-91 59 -150 77 -235 69 -97 -9 -129 -22 -187 -77 -58 -55 -62 -55 -34 1 39 77
88 101 208 102 88 0 95 -2 171 -41z m1880 -46 c-64 -117 -77 -133 -95 -126
-10 4 -21 11 -25 16 -8 12 13 48 24 41 4 -3 8 1 8 9 0 7 11 24 24 36 l25 23
-5 -23 -6 -24 21 25 c11 14 21 29 21 34 0 9 30 46 37 46 2 0 -11 -26 -29 -57z
m2287 47 c-3 -5 -12 -10 -18 -10 -7 0 -6 4 3 10 19 12 23 12 15 0z m59 -32 c9
-12 16 -32 15 -43 0 -18 -2 -17 -12 5 -16 35 -17 36 -27 20 -8 -12 -10 -10
-10 8 0 15 -4 21 -12 16 -7 -4 -8 -3 -4 4 11 19 33 14 50 -10z m-68 -8 c21 0
17 -18 -6 -30 -18 -10 -20 -8 -19 22 0 18 3 27 6 21 2 -7 11 -13 19 -13z
m-4571 -27 c-4 -10 -15 -39 -25 -66 -9 -26 -19 -50 -22 -53 -12 -11 -354 -94
-391 -94 -21 0 -63 9 -95 19 -31 10 -86 21 -122 25 -57 5 -60 4 -25 -5 22 -5
59 -15 83 -21 81 -20 174 -116 171 -175 0 -11 -8 -2 -19 21 -23 49 -68 98 -82
89 -6 -3 -8 -1 -5 5 8 12 -87 62 -118 62 -12 0 -36 5 -53 11 -24 8 -44 7 -88
-6 -112 -32 -59 6 71 51 39 14 111 29 160 33 50 5 182 32 295 59 113 28 214
52 225 55 40 9 47 8 40 -10z m812 -28 c33 -15 60 -36 73 -57 22 -36 26 -53 10
-43 -18 11 -11 -31 9 -53 24 -28 29 -28 66 7 22 21 43 30 78 34 48 5 49 4 42
-21 -8 -34 -92 -202 -111 -223 -13 -15 -11 -17 20 -23 38 -7 39 -9 65 -126 14
-62 13 -90 -2 -90 -8 0 -13 -10 -13 -22 2 -50 -27 -18 -64 68 -62 150 -173
337 -258 435 -61 71 -74 96 -62 119 15 28 81 26 147 -5z m2229 6 c-3 -5 1 -11
9 -15 20 -7 19 -30 -1 -47 -14 -11 -18 -11 -29 4 -6 9 -15 14 -18 11 -3 -3 4
-17 16 -30 15 -17 23 -21 28 -12 11 17 21 5 13 -16 -3 -9 -10 -13 -15 -10 -5
3 -9 0 -9 -5 0 -6 5 -11 10 -11 6 0 10 -4 10 -10 0 -5 -9 -10 -21 -10 -11 0
-17 -5 -14 -10 4 -6 12 -7 18 -3 7 3 4 -3 -5 -14 -20 -21 -24 -38 -8 -28 14 9
12 -9 -2 -24 -11 -10 -9 -11 6 -5 13 5 23 1 32 -10 7 -10 17 -15 23 -12 5 3
18 -4 28 -17 10 -13 26 -26 35 -30 10 -3 16 -12 14 -19 -36 -115 -49 -148 -57
-148 -15 0 -57 29 -143 98 -43 35 -89 67 -102 72 -16 6 -22 15 -18 25 3 8 4
15 1 15 -5 0 -20 -31 -57 -115 -13 -29 -14 -34 -19 -65 -3 -20 -30 39 -31 67
0 12 -11 33 -24 46 -19 19 -27 21 -40 12 -8 -7 -13 -15 -9 -18 3 -4 -1 -7 -10
-7 -10 0 -14 -6 -11 -14 7 -17 -22 -46 -47 -46 -26 0 -33 36 -26 125 8 87 13
102 38 110 10 4 19 15 19 25 0 14 5 18 17 13 12 -5 14 -3 8 7 -6 9 -4 11 4 5
7 -4 33 -8 58 -9 26 -1 48 -8 54 -16 8 -13 10 -13 18 0 10 15 10 16 26 -35 2
-9 11 -12 20 -9 9 4 14 13 11 20 -3 8 -1 27 4 42 l10 27 -20 -25 c-15 -19 -20
-21 -20 -8 0 9 28 38 63 64 42 32 53 37 35 17 -16 -16 -28 -35 -28 -42 0 -7
-4 -9 -10 -6 -15 9 -12 -8 6 -33 20 -29 38 -28 69 5 18 21 25 24 25 12 0 -18
37 -32 46 -18 3 5 -1 9 -9 9 -16 0 -30 27 -21 41 3 5 0 9 -5 9 -18 0 -12 39 9
60 20 20 56 29 46 11z m1558 -7 c3 -9 6 -28 5 -42 l-1 -27 -13 30 c-8 17 -14
36 -15 43 0 17 17 15 24 -4z m-419 -46 c0 -29 4 -66 8 -83 5 -19 5 -26 -1 -20
-18 19 -31 106 -20 131 6 13 12 24 12 24 1 0 1 -24 1 -52z m-3815 13 c0 -25
-3 -28 -29 -27 -38 2 -45 10 -31 35 6 13 21 21 35 21 21 0 25 -5 25 -29z
m2250 -36 c14 -19 14 -19 -2 -6 -10 7 -18 18 -18 24 0 6 1 8 3 6 1 -2 9 -13
17 -24z m-1965 -15 c10 -11 16 -20 13 -20 -3 0 -13 9 -23 20 -10 11 -16 20
-13 20 3 0 13 -9 23 -20z m3498 5 c-3 -9 -8 -14 -10 -11 -3 3 -2 9 2 15 9 16
15 13 8 -4z m-2433 1 c0 -3 -4 -8 -10 -11 -5 -3 -10 -1 -10 4 0 6 5 11 10 11
6 0 10 -2 10 -4z m3128 -8 c16 -16 15 -29 -2 -22 -8 3 -24 0 -36 -6 l-22 -12
18 26 c22 29 26 30 42 14z m-4320 -10 c22 -22 14 -67 -14 -80 -34 -16 -59 0
-59 38 0 20 7 32 25 41 31 16 33 16 48 1z m4092 -21 c0 -5 -4 -5 -10 -2 -5 3
-10 14 -10 23 0 15 2 15 10 2 5 -8 10 -19 10 -23z m-2595 13 c3 -6 -1 -7 -9
-4 -9 3 -16 1 -16 -5 0 -6 5 -11 11 -11 6 0 22 -13 36 -30 13 -16 30 -30 36
-30 6 0 0 11 -13 25 -13 14 -19 25 -13 25 17 0 52 -45 55 -70 3 -28 6 -27
-122 -17 -77 6 -79 16 -23 85 35 43 47 50 58 32z m-177 -19 c3 -8 -1 -12 -9
-9 -7 2 -15 10 -17 17 -3 8 1 12 9 9 7 -2 15 -10 17 -17z m-1037 -159 c64 -97
141 -256 179 -370 32 -96 37 -140 6 -55 -20 54 -49 114 -53 109 -2 -1 6 -29
17 -61 34 -99 22 -85 -23 25 -24 58 -73 164 -110 235 -36 72 -55 117 -42 100
13 -16 27 -26 31 -23 7 7 -39 77 -104 158 l-44 55 47 -50 c26 -27 69 -83 96
-123z m986 146 c-3 -8 -6 -5 -6 6 -1 11 2 17 5 13 3 -3 4 -12 1 -19z m428 2
c8 0 19 -8 24 -19 12 -21 29 -152 23 -169 -5 -17 -33 -15 -70 4 -18 8 -42 14
-54 12 -19 -2 -24 -11 -28 -48 -4 -36 -9 -45 -24 -45 -13 0 -22 10 -28 30 -9
37 -33 55 -71 55 l-30 0 7 -58 c4 -32 15 -81 25 -108 19 -50 37 -134 28 -134
-26 0 -76 34 -81 55 -5 20 -13 25 -36 25 -26 0 -29 -3 -32 -38 l-3 -38 -41 9
c-37 7 -43 12 -48 41 -8 40 -36 58 -36 23 0 -20 -5 -22 -51 -21 -31 1 -55 7
-60 15 -12 18 -1 69 18 91 14 16 14 21 -1 52 -9 19 -16 40 -16 47 0 7 -7 33
-16 56 -16 42 -16 44 2 58 51 37 69 23 109 -88 22 -58 24 -60 33 -37 5 14 12
46 16 73 4 26 11 47 17 47 5 0 9 -4 9 -9 0 -17 64 -17 95 0 19 10 38 13 50 8
11 -4 34 -8 52 -8 17 -1 35 -5 38 -11 3 -5 14 -10 23 -10 15 0 15 2 2 10 -12
8 -10 10 9 10 13 0 41 5 62 12 37 10 39 14 39 50 0 41 20 93 28 70 2 -6 10
-12 17 -12z m2935 16 c0 -2 -8 -10 -17 -17 -16 -13 -17 -12 -4 4 13 16 21 21
21 13z m-2696 -12 c18 -7 22 -39 6 -49 -5 -3 -6 -13 -3 -22 4 -11 3 -14 -5 -9
-7 4 -10 2 -7 -6 3 -7 -6 -18 -18 -24 -23 -10 -25 -8 -41 43 -9 30 -14 59 -11
64 7 10 55 12 79 3z m-2234 -46 c11 -21 12 -32 4 -45 -15 -24 -57 -38 -80 -28
-11 5 -22 7 -26 7 -5 -1 -8 1 -9 6 0 4 -2 19 -4 35 -3 21 2 30 23 42 39 21 74
15 92 -17z m5060 -10 c25 -41 60 -132 67 -175 5 -28 3 -33 -15 -33 -15 0 -22
10 -31 44 -6 25 -11 53 -11 63 0 10 -13 44 -29 76 -21 42 -25 57 -15 57 8 0
23 -15 34 -32z m-5891 -31 c112 -41 187 -159 179 -283 l-4 -61 42 5 c62 7 141
-22 160 -60 8 -16 13 -35 11 -41 -3 -7 -8 0 -12 16 -5 18 -14 27 -28 27 -11 0
-29 8 -39 17 -13 12 -41 19 -86 21 -65 4 -69 3 -104 -30 -46 -41 -64 -83 -73
-168 -4 -36 -18 -139 -31 -229 -13 -90 -24 -170 -24 -178 0 -7 -4 -13 -9 -13
-5 0 -7 19 -4 43 3 23 2 39 -2 35 -11 -11 -45 10 -45 27 0 14 -9 27 -72 98
-15 16 -30 39 -34 49 -3 10 -9 18 -14 18 -5 0 -11 13 -15 30 -4 16 -16 37 -28
46 -14 11 -16 14 -5 11 9 -3 34 -8 55 -11 31 -5 27 -2 -22 16 -72 26 -158 107
-195 183 -33 68 -35 207 -3 275 74 162 228 222 402 157z m2092 -37 c-5 -91
-13 -108 -48 -103 -30 5 -61 52 -48 73 3 5 8 23 10 40 2 21 -1 30 -11 30 -31
0 -12 19 24 23 78 8 77 9 73 -63z m-121 25 c12 -19 20 -40 18 -46 -2 -5 -13
10 -26 35 -26 55 -22 60 8 11z m3256 -38 c45 -24 106 -65 136 -91 49 -42 55
-51 54 -84 -1 -33 -4 -37 -25 -34 -24 2 -24 2 -5 -20 l19 -23 -26 23 c-14 12
-35 22 -47 22 -27 0 -116 57 -162 103 -19 20 -37 34 -40 32 -3 -1 -6 18 -7 43
-1 25 -7 50 -13 56 -17 17 -11 28 13 23 12 -4 59 -26 103 -50z m174 14 c27
-16 93 -71 87 -71 -10 0 -95 52 -122 75 -32 27 -12 25 35 -4z m-4049 2 c13
-16 12 -17 -3 -4 -10 7 -18 15 -18 17 0 8 8 3 21 -13z m4272 -10 c-7 -2 -19
-2 -25 0 -7 3 -2 5 12 5 14 0 19 -2 13 -5z m-4597 -29 c32 -40 -21 -97 -73
-78 -38 13 -51 63 -22 86 23 20 76 15 95 -8z m-486 -50 c0 -18 -11 -29 -50
-49 -28 -14 -55 -23 -61 -19 -5 3 -16 1 -24 -6 -10 -8 -15 -8 -20 0 -4 7 -18
9 -32 5 -16 -4 -22 -2 -18 5 3 5 12 10 20 10 7 0 15 4 17 8 7 19 109 84 123
78 8 -3 15 0 15 6 0 7 5 6 15 -2 8 -7 15 -23 15 -36z m4180 10 c0 -8 -4 -12
-10 -9 -5 3 -10 10 -10 16 0 5 5 9 10 9 6 0 10 -7 10 -16z m-1860 -49 c0 -7
-4 -17 -10 -20 -5 -3 -10 -1 -10 5 0 6 -4 8 -10 5 -6 -4 -10 5 -10 20 0 23 2
24 20 15 11 -6 20 -17 20 -25z m1895 15 c3 -5 1 -10 -4 -10 -6 0 -11 5 -11 10
0 6 2 10 4 10 3 0 8 -4 11 -10z m480 -133 c0 -7 8 -18 18 -25 23 -18 22 -42
-2 -42 -24 0 -38 19 -22 30 9 5 8 10 -3 19 -10 8 -16 9 -21 1 -10 -17 -25 -11
-37 15 -14 32 -26 32 -34 -1 -6 -25 -7 -25 -24 14 -10 22 -21 53 -25 71 -3 17
-11 33 -16 36 -5 4 -9 10 -9 15 0 5 39 -21 88 -57 48 -35 87 -70 87 -76z
m-4388 87 c31 -20 70 -74 78 -109 l6 -30 -15 32 c-10 23 -20 31 -30 27 -9 -3
-16 -1 -16 6 0 6 5 8 11 4 27 -16 0 21 -32 45 l-34 26 20 -25 20 -24 -27 17
c-57 36 -158 15 -205 -41 -18 -21 -23 -23 -23 -10 0 30 66 86 112 96 50 11
104 6 135 -14z m1176 20 c-9 -4 -8 -15 2 -45 8 -22 17 -62 21 -88 l6 -49 -35
-4 c-34 -4 -36 -2 -40 32 -3 19 -10 57 -16 85 -15 65 -10 75 36 74 21 0 33 -3
26 -5z m3838 -31 c-11 -28 -38 -40 -134 -60 -15 -3 -30 -10 -34 -16 -4 -7 0
-8 13 -3 15 6 16 5 7 -5 -10 -10 -18 -10 -38 -1 -29 13 -45 9 -45 -12 0 -8 -6
-19 -14 -25 -22 -18 -10 18 17 51 16 20 37 30 76 38 30 5 77 23 105 39 28 17
52 28 55 26 2 -3 -2 -17 -8 -32z m-2342 -18 c9 -5 23 -10 31 -10 8 0 16 -8 18
-19 2 -11 0 -16 -6 -12 -15 9 -12 -57 2 -66 6 -4 0 -8 -14 -8 -14 0 -45 -7
-69 -16 -24 -8 -46 -13 -48 -10 -7 7 -22 78 -23 104 0 12 5 22 11 22 6 0 8 -7
5 -16 -4 -11 -2 -15 8 -11 8 3 16 1 18 -4 2 -6 11 -7 21 -4 12 5 17 19 18 54
1 25 4 37 6 26 3 -11 13 -24 22 -30z m-1678 13 c1 -7 1 -16 0 -20 0 -4 4 -19
9 -32 11 -30 0 -41 -35 -32 -18 5 -24 14 -27 46 -2 23 -2 43 1 46 10 9 51 3
52 -8z m-2701 -142 c58 -44 168 -130 245 -191 160 -127 261 -200 296 -214 22
-9 22 -10 -11 -10 -19 -1 -92 4 -163 10 -70 7 -130 9 -133 6 -4 -3 30 -76 75
-161 44 -85 81 -159 81 -164 0 -4 -33 -19 -72 -31 -68 -22 -80 -30 -175 -125
-82 -82 -101 -96 -96 -75 3 18 -8 55 -35 115 -22 49 -51 121 -65 159 -43 118
-48 130 -55 119 -4 -6 -45 -32 -92 -58 -47 -27 -100 -60 -118 -73 -40 -30 -48
-25 -33 19 6 18 22 87 35 153 31 147 132 601 142 633 5 15 13 10 174 -112z
m1640 114 c0 -5 -15 -10 -33 -10 -24 0 -41 -8 -58 -27 l-24 -27 29 22 c42 32
45 30 37 -29 -1 -4 -11 -6 -23 -5 -17 1 -26 -7 -35 -29 -11 -30 -11 -30 -12
17 -1 40 3 50 30 72 30 26 89 36 89 16z m-130 -18 c0 -5 -7 -17 -15 -28 -14
-18 -14 -17 -4 9 12 27 19 34 19 19z m2610 -17 c0 -14 -25 -27 -34 -18 -3 4
-6 14 -6 24 0 12 6 16 20 12 11 -3 20 -11 20 -18z m1264 9 c5 -13 9 -14 20 -5
11 9 15 8 20 -5 11 -28 7 -37 -11 -23 -15 13 -16 11 -10 -12 11 -44 -14 -54
-51 -20 l-32 28 22 26 c27 31 34 32 42 11z m-1560 -20 c3 -9 -1 -14 -14 -14
-13 0 -20 7 -20 20 0 22 25 18 34 -6z m-244 1 c0 -8 -4 -15 -10 -15 -5 0 -10
7 -10 15 0 8 5 15 10 15 6 0 10 -7 10 -15z m390 -45 c0 -5 -4 -10 -10 -10 -5
0 -10 5 -10 10 0 6 5 10 10 10 6 0 10 -4 10 -10z m2582 -10 c50 -14 58 -30 9
-18 -26 7 -55 7 -88 0 -26 -6 -49 -9 -51 -7 -2 2 64 28 88 34 3 0 22 -4 42 -9z
m-5084 -60 c0 -9 -3 -7 -8 5 -5 11 -8 29 -8 40 0 16 2 15 8 -5 4 -14 8 -32 8
-40z m36 25 c5 -22 4 -26 -4 -15 -5 8 -10 24 -10 34 0 26 6 18 14 -19z m5154
8 c-10 -2 -26 -2 -35 0 -10 3 -2 5 17 5 19 0 27 -2 18 -5z m49 1 c-3 -3 -12
-4 -19 -1 -8 3 -5 6 6 6 11 1 17 -2 13 -5z m173 0 c0 -8 -43 -43 -52 -44 -18
0 -6 31 15 40 27 11 37 12 37 4z m-495 -13 c-6 -6 -41 -12 -80 -15 -38 -3 -61
-3 -50 0 11 3 24 10 30 15 13 12 112 12 100 0z m-5352 -18 c-7 -2 -9 -12 -6
-20 5 -13 2 -15 -12 -10 -11 5 -22 1 -31 -10 -7 -10 -14 -13 -14 -7 0 14 62
66 69 58 3 -4 1 -9 -6 -11z m134 -3 c14 -11 22 -20 18 -20 -4 0 -18 9 -32 20
-14 11 -22 20 -18 20 4 0 18 -9 32 -20z m377 4 c3 -8 2 -12 -4 -9 -6 3 -10 10
-10 16 0 14 7 11 14 -7z m-405 -20 c15 -14 13 -15 -22 0 -21 8 -44 13 -52 10
-8 -4 -15 -1 -15 6 0 18 69 5 89 -16z m4691 -25 c0 -6 7 -8 16 -5 8 3 13 2 10
-3 -3 -5 1 -12 10 -15 8 -3 12 -2 9 4 -8 13 -4 13 36 -6 53 -24 63 -30 66 -40
5 -15 -51 -10 -79 8 -14 9 -41 21 -59 26 -35 8 -54 42 -25 42 9 0 16 -5 16
-11z m-2930 -14 c0 -8 -7 -15 -15 -15 -8 0 -15 7 -15 15 0 8 7 15 15 15 8 0
15 -7 15 -15z m900 -31 c0 -8 -5 -12 -10 -9 -6 4 -8 11 -5 16 9 14 15 11 15
-7z m-2633 -26 c-3 -7 -5 -2 -5 12 0 14 2 19 5 13 2 -7 2 -19 0 -25z m4328
-20 c43 -15 67 -38 55 -53 -5 -6 -7 -14 -4 -17 9 -10 -50 -2 -79 10 -16 7 -37
12 -47 12 -10 0 -21 4 -24 9 -4 5 2 7 13 4 10 -3 22 0 25 6 5 7 1 8 -9 5 -14
-6 -14 -3 -4 20 9 18 17 25 28 20 9 -3 30 -11 46 -16z m-1895 -13 c0 -8 -7
-15 -15 -15 -8 0 -15 7 -15 15 0 8 7 15 15 15 8 0 15 -7 15 -15z m2293 -12 c4
-3 2 -12 -4 -20 -6 -7 -8 -13 -4 -13 4 0 14 8 21 18 12 16 13 16 20 -2 5 -12
2 -21 -9 -28 -10 -5 -17 -16 -17 -23 0 -10 -10 -15 -30 -15 -18 0 -33 -6 -36
-15 -8 -19 -24 -20 -24 -1 0 8 7 16 15 20 8 3 12 12 9 21 -4 10 0 15 10 15 9
0 16 8 16 18 0 28 18 41 33 25z m-1746 -9 c-3 -3 -12 -4 -19 -1 -8 3 -5 6 6 6
11 1 17 -2 13 -5z m2383 -3 c0 -6 -4 -13 -10 -16 -5 -3 -10 1 -10 9 0 9 5 16
10 16 6 0 10 -4 10 -9z m-3040 -20 c0 -27 -13 -33 -35 -17 -21 15 -12 36 16
36 12 0 19 -7 19 -19z m-250 -12 c0 -5 -10 -9 -21 -9 -18 0 -19 2 -9 15 12 15
30 12 30 -6z m1596 -37 c-9 -8 -14 0 -21 33 l-6 30 16 -28 c9 -16 14 -31 11
-35z m902 4 c45 -29 92 -73 92 -86 0 -6 -8 -10 -17 -10 -9 0 -25 -7 -34 -16
-17 -16 -21 -15 -55 12 -20 16 -49 36 -65 44 l-30 16 20 19 c12 10 21 24 21
32 0 20 26 16 68 -11z m-908 -46 c0 -5 -5 -10 -11 -10 -5 0 -7 5 -4 10 3 6 8
10 11 10 2 0 4 -4 4 -10z m137 -42 c-3 -8 -6 -5 -6 6 -1 11 2 17 5 13 3 -3 4
-12 1 -19z m221 -4 c5 -29 64 -167 79 -185 12 -14 11 -17 -3 -23 -9 -4 -24 0
-33 7 -9 8 -27 20 -41 27 -23 12 -24 12 -11 -3 21 -27 2 -20 -53 18 -39 26
-69 37 -126 46 -98 15 -100 16 -100 34 0 9 19 25 46 36 59 27 131 19 168 -17
23 -23 24 -24 19 -4 -3 11 -17 30 -32 42 l-26 21 38 -6 c25 -4 35 -2 31 5 -7
11 15 29 31 25 6 -2 11 -12 13 -23z m-946 -93 c-4 -11 -7 -10 -12 5 -4 10 -5
25 -2 33 4 11 7 10 12 -5 4 -10 5 -25 2 -33z m-1249 -18 c50 -67 81 -113 75
-113 -3 0 -20 21 -39 48 -18 26 -49 64 -68 85 -18 20 -29 37 -23 37 6 0 31
-26 55 -57z m965 48 c-53 -6 -59 -9 -99 -58 -56 -69 -62 -61 -8 11 l42 56 61
-2 61 -1 -57 -6z m3015 -246 c59 -71 123 -149 143 -172 39 -47 38 -54 -4 -24
-15 11 -90 38 -166 60 -176 52 -191 64 -42 35 19 -4 26 -3 22 5 -4 6 0 11 8
11 9 0 16 -4 16 -10 0 -5 7 -10 15 -10 19 0 19 10 -1 38 -8 12 -13 32 -10 45
3 12 3 16 0 10 -3 -7 -9 -13 -14 -13 -13 0 -51 71 -44 82 4 7 2 8 -4 4 -7 -4
-18 8 -28 33 -9 23 -31 53 -48 69 -18 16 -36 35 -41 43 -25 41 105 -93 198
-206z m-1452 168 c-10 -18 -49 -71 -124 -172 -22 -28 -41 -51 -44 -51 -6 0 25
45 105 153 63 83 85 108 63 70z m-986 -83 c-8 -13 8 -13 22 1 8 8 16 6 31 -9
l20 -20 -21 -6 c-61 -16 -96 1 -65 32 15 15 21 16 13 2z m-1444 -27 c13 -16
12 -17 -3 -4 -10 7 -18 15 -18 17 0 8 8 3 21 -13z m1028 -14 c1 -13 8 -28 15
-32 6 -4 -2 -6 -19 -5 -31 3 -43 24 -31 54 9 22 30 12 35 -17z m1066 22 c-6
-5 -21 -12 -35 -15 l-25 -7 25 15 c28 17 50 21 35 7z m-2437 -78 c-5 -25 -28
-28 -28 -4 0 12 6 21 16 21 9 0 14 -7 12 -17z m-1808 -31 c0 -51 -23 -238 -30
-245 -4 -5 -17 -3 -28 4 -17 11 -45 10 -159 -5 -209 -27 -277 -57 -348 -154
-53 -74 -77 -159 -83 -293 -5 -140 11 -211 63 -267 l34 -37 83 0 c139 1 178
39 178 177 l0 70 -35 -6 -35 -7 0 60 c0 58 -2 62 -41 98 -41 38 -64 71 -56 79
2 2 52 11 110 19 153 21 299 45 321 52 16 4 18 1 13 -18 -3 -13 -11 -169 -18
-346 l-12 -321 -26 -6 c-14 -3 -120 -26 -236 -51 -273 -60 -314 -63 -402 -37
-93 29 -151 80 -198 175 -51 103 -68 198 -61 327 7 134 34 240 92 359 57 117
163 230 259 275 70 33 233 70 425 96 180 24 190 24 190 2z m2775 -1 l150 -6 5
-103 5 -102 -102 0 -103 0 0 -332 c0 -314 2 -336 21 -378 11 -25 30 -55 41
-67 l21 -23 -134 -1 c-74 0 -159 -4 -189 -8 -30 -5 -57 -7 -59 -5 -3 2 6 16
20 30 l24 26 3 379 3 379 -98 0 -98 0 3 89 c3 54 -1 97 -7 110 l-12 21 178 -1
c98 -1 246 -4 328 -8z m3051 -123 c-21 -195 -84 -521 -108 -558 -8 -12 -8 -11
-4 3 3 10 15 66 26 125 11 59 25 125 30 147 8 35 28 165 46 303 8 66 17 49 10
-20z m-3746 13 c69 -28 113 -70 148 -141 27 -55 27 -56 27 -275 l0 -220 -28
-57 c-35 -71 -93 -120 -167 -143 -48 -14 -266 -34 -385 -35 l-40 0 0 409 0
410 -27 28 c-16 16 -28 32 -28 36 0 9 117 14 290 12 134 -2 162 -5 210 -24z
m-739 -331 c-1 -189 -5 -349 -8 -354 -4 -5 39 -6 108 -2 l114 7 -2 -98 -2 -98
-226 -13 c-125 -7 -229 -12 -231 -10 -1 2 3 22 11 43 11 32 14 118 15 415 l0
375 -26 30 c-14 16 -21 31 -17 32 13 5 224 21 247 19 19 -1 20 -10 17 -346z
m1954 330 c130 -11 172 -23 220 -63 67 -55 95 -151 80 -272 -6 -48 -13 -64
-47 -101 -22 -24 -59 -50 -84 -60 -24 -9 -44 -20 -44 -25 0 -4 13 -29 29 -56
16 -26 54 -93 84 -148 31 -55 63 -109 71 -120 14 -19 15 -18 16 16 0 19 14 85
31 145 17 60 35 125 39 144 4 19 29 118 55 220 46 179 50 222 29 274 -7 18 -3
19 107 12 63 -4 130 -9 149 -12 l36 -6 58 -251 c78 -339 152 -603 178 -640
l21 -30 -119 6 c-141 7 -144 9 -164 115 l-13 69 -75 7 c-148 12 -137 17 -157
-72 l-18 -78 -51 3 c-28 3 -116 7 -196 11 l-145 7 -17 35 c-35 71 -142 345
-149 380 -4 19 -7 -54 -8 -163 -1 -120 3 -206 9 -218 10 -18 6 -19 -120 -19
-134 0 -140 2 -119 41 12 23 16 797 4 842 l-7 28 103 -6 c57 -4 154 -10 214
-15z m-4225 -34 c0 -12 -5 -7 -19 24 -11 24 -11 24 3 6 9 -11 16 -24 16 -30z
m1936 -420 l-1 -454 -95 -6 c-52 -4 -104 -9 -115 -12 -20 -5 -20 -1 -17 426 3
399 2 433 -14 451 -9 10 -14 22 -10 26 4 4 55 10 114 13 59 4 114 8 123 8 14
2 15 -44 15 -452z m-321 107 c-5 -222 -12 -348 -21 -391 -27 -122 -106 -195
-246 -227 -132 -30 -221 -12 -286 59 -63 69 -66 86 -58 455 6 289 5 326 -9
341 -9 10 -13 20 -8 23 12 8 243 30 249 24 3 -2 0 -149 -6 -325 -6 -177 -8
-334 -4 -349 4 -15 14 -36 22 -45 17 -20 72 -24 103 -8 42 23 46 51 53 375 7
309 7 311 -15 339 -12 15 -20 29 -18 30 2 2 56 8 119 13 63 6 119 11 123 11 4
1 5 -145 2 -325z m-1586 237 c0 -13 -1 -13 -8 0 -5 8 -12 26 -15 40 l-7 25 15
-25 c9 -14 15 -32 15 -40z m5421 15 c163 -14 179 -17 239 -47 133 -68 151
-122 154 -470 2 -225 1 -246 -18 -283 -24 -47 -69 -80 -141 -101 -47 -13 -70
-13 -230 2 -99 9 -180 17 -180 18 -2 1 -13 267 -30 684 -6 139 -9 156 -30 188
l-24 35 42 -5 c24 -4 122 -13 218 -21z m957 -11 c-3 -3 -12 -4 -19 -1 -8 3 -5
6 6 6 11 1 17 -2 13 -5z m171 -21 c-10 -2 -26 -2 -35 0 -10 3 -2 5 17 5 19 0
27 -2 18 -5z m-453 -33 c94 -10 210 -22 258 -26 72 -5 87 -9 83 -21 -4 -8 -11
-47 -16 -86 -15 -101 -19 -119 -29 -113 -10 6 -33 10 -173 30 l-98 13 0 -68
c0 -81 -26 -70 230 -95 14 -1 26 -3 26 -3 1 -1 -5 -29 -12 -63 -7 -35 -13 -78
-14 -97 0 -29 -3 -33 -22 -28 -13 3 -58 14 -100 24 -43 10 -78 22 -78 27 0 4
7 6 15 2 8 -3 25 -1 37 3 22 9 22 9 -7 16 -74 16 -68 28 -60 -113 4 -70 12
-130 17 -133 6 -4 40 -9 77 -13 36 -4 120 -16 186 -26 66 -11 123 -20 128 -20
4 0 7 -12 7 -27 -1 -43 -28 -185 -37 -194 -4 -4 -33 -2 -63 6 -72 18 -158 36
-365 76 l-170 32 -3 231 c-1 127 -8 320 -15 428 -13 193 -14 198 -40 226 -15
15 -27 31 -27 35 0 4 21 5 48 2 26 -3 124 -14 217 -25z m-6245 -24 c0 -3 -31
-21 -70 -42 -38 -20 -70 -42 -70 -50 0 -32 41 -497 50 -564 5 -41 9 -88 9
-105 l-1 -30 -9 34 c-6 18 -13 31 -16 28 -3 -3 -15 -2 -28 3 -47 18 -61 -48
-26 -121 11 -21 15 -37 10 -33 -28 17 -68 199 -89 399 -25 243 -40 403 -39
435 l1 35 12 -35 c8 -21 15 -29 17 -21 4 10 24 15 70 17 44 1 81 10 119 27 63
29 60 28 60 23z m6707 -118 c-3 -7 -5 -2 -5 12 0 14 2 19 5 13 2 -7 2 -19 0
-25z m533 -80 c-32 -254 -110 -747 -126 -799 -4 -15 -252 -134 -260 -126 -2 2
37 23 86 47 49 24 87 47 84 52 -3 4 0 18 7 30 9 16 9 23 0 26 -6 2 -11 11 -11
20 0 12 -3 13 -12 4 -7 -7 -19 -12 -27 -12 -13 0 -13 2 1 13 16 13 20 35 68
357 51 347 68 439 69 391 1 -33 4 -41 14 -33 6 5 26 11 44 14 28 4 32 1 35
-21 2 -14 10 11 17 56 8 46 16 81 19 79 2 -3 -1 -47 -8 -98z m-113 70 c-3 -8
-6 -5 -6 6 -1 11 2 17 5 13 3 -3 4 -12 1 -19z m-7459 -416 c2 -86 27 -211 52
-264 12 -26 49 -78 83 -115 52 -58 54 -62 13 -23 -101 95 -155 209 -156 328 0
23 -3 42 -8 42 -15 0 6 -224 28 -285 12 -33 23 -74 25 -91 2 -17 5 -35 7 -40
2 -5 -6 -19 -17 -30 -26 -28 -55 -67 -55 -74 0 -3 23 -32 51 -65 67 -78 151
-137 237 -164 39 -12 79 -30 91 -40 27 -23 222 -85 331 -105 104 -19 285 -36
360 -35 l55 2 -67 7 c-81 10 -96 17 -71 36 17 12 16 13 -9 12 -15 -1 -24 -6
-22 -10 3 -4 0 -8 -5 -8 -6 0 -11 5 -11 10 0 6 -7 10 -15 10 -8 0 -15 7 -15
15 0 18 16 20 23 3 3 -7 4 2 4 20 -2 29 -3 31 -16 15 -12 -17 -13 -16 -8 5 3
13 3 21 0 18 -3 -3 -12 1 -20 9 -8 8 -26 15 -41 16 -15 0 -35 4 -45 8 -10 3
44 6 120 5 l138 -2 -125 9 c-371 28 -628 117 -782 271 -39 39 -54 72 -20 47
15 -11 15 -11 4 1 -7 8 -18 15 -24 15 -6 0 -17 10 -25 23 -10 15 -12 22 -4 22
6 0 14 -7 17 -15 4 -8 11 -15 17 -15 5 0 33 -22 61 -48 107 -101 320 -173 614
-207 70 -8 172 -15 227 -15 187 1 477 48 456 74 -5 6 -11 28 -13 49 -3 31 -1
37 11 31 9 -3 79 -27 156 -54 230 -79 329 -117 331 -126 1 -5 -45 -49 -102
-99 -58 -49 -146 -125 -195 -168 -50 -44 -92 -77 -94 -75 -3 2 -6 37 -7 76 -2
40 -6 72 -9 72 -3 0 -32 -9 -64 -20 -76 -26 -148 -37 -320 -49 -214 -15 -455
12 -630 71 -122 41 -304 128 -380 182 -213 153 -285 351 -220 607 13 49 72
189 80 189 1 0 2 -26 3 -58z m3409 -228 c-3 -3 -12 -4 -19 -1 -8 3 -5 6 6 6
11 1 17 -2 13 -5z m-70 -10 c-3 -3 -12 -4 -19 -1 -8 3 -5 6 6 6 11 1 17 -2 13
-5z m411 -60 c23 -24 48 -26 447 -41 148 -6 183 -9 135 -14 -38 -3 -51 -6 -30
-8 19 -1 44 -8 54 -16 11 -8 38 -15 60 -16 23 0 49 -3 58 -7 9 -4 -135 -8
-320 -9 -208 -2 -340 -7 -346 -13 -7 -7 0 -20 19 -40 16 -17 23 -30 15 -30 -7
0 -19 8 -26 18 -13 16 -14 16 -7 -3 5 -18 3 -17 -21 5 l-28 25 23 -39 23 -40
-34 20 c-18 10 -42 27 -53 37 -15 15 -21 16 -35 5 -11 -9 -14 -10 -8 0 4 6 2
12 -3 12 -6 0 -11 -5 -11 -11 0 -6 -6 -9 -14 -6 -7 3 -31 -6 -52 -20 l-39 -26
29 32 c28 29 28 31 8 31 -11 0 -23 -4 -27 -10 -3 -5 -20 -19 -38 -31 l-32 -23
20 24 20 23 -22 -12 c-30 -15 -43 -14 -43 5 0 8 4 13 9 9 5 -3 11 5 13 17 2
14 12 25 28 29 51 12 -195 21 -507 18 -175 -2 -293 -1 -263 3 30 3 87 7 125 8
39 1 81 5 95 10 23 7 21 8 -17 15 -24 4 -43 11 -43 15 0 4 93 11 208 14 114 3
259 8 322 11 63 2 145 5 183 5 53 0 67 3 67 15 0 8 5 15 11 15 5 0 8 4 5 9 -4
5 -3 17 1 27 6 16 7 16 14 -2 4 -10 16 -29 27 -40z m-860 -61 c-10 -2 -28 -2
-40 0 -13 2 -5 4 17 4 22 1 32 -1 23 -4z m1680 -50 c-10 -2 -26 -2 -35 0 -10
3 -2 5 17 5 19 0 27 -2 18 -5z m70 0 c-10 -2 -26 -2 -35 0 -10 3 -2 5 17 5 19
0 27 -2 18 -5z m-778 -24 c0 -8 5 -8 15 1 12 10 24 10 60 -1 25 -7 44 -17 42
-22 -1 -5 -6 -8 -10 -8 -4 1 -21 -6 -37 -14 -19 -10 -30 -11 -30 -5 0 6 -4 8
-10 5 -5 -3 -10 -1 -10 5 0 6 -4 9 -9 5 -5 -3 -22 6 -38 20 l-28 24 28 1 c15
0 27 -5 27 -11z m-226 -65 c3 -9 2 -12 -5 -8 -6 3 -23 -4 -37 -17 -24 -22 -24
-21 2 9 35 37 32 36 40 16z m241 -15 c-4 -5 -15 -14 -27 -20 -20 -11 -20 -11
-2 14 17 23 42 28 29 6z m-1083 -19 c36 -11 76 -28 88 -38 20 -16 21 -19 6
-31 -9 -8 -37 -18 -63 -22 -46 -9 -95 -39 -64 -39 9 0 5 -8 -9 -20 -13 -11
-27 -20 -31 -20 -4 0 -37 -13 -72 -30 -36 -16 -81 -30 -101 -30 -45 0 -48 -20
-3 -21 30 0 31 -1 8 -10 -17 -7 -21 -13 -14 -22 17 -21 11 -48 -14 -58 -45
-17 -216 21 -206 47 2 7 12 10 21 7 11 -5 14 -2 9 10 -3 9 -2 19 4 22 5 4 7
10 5 14 -3 4 9 6 27 4 l32 -2 -35 10 c-19 6 -48 17 -65 25 l-30 14 30 -5 c17
-3 -3 7 -42 21 -63 22 -73 29 -73 50 0 32 46 79 103 104 40 18 84 26 237 44
67 8 186 -3 252 -24z m1008 -40 c40 -23 55 -28 74 -20 37 14 41 -14 8 -48 -43
-43 -69 -77 -52 -67 9 5 7 -1 -5 -15 -16 -19 -17 -22 -3 -17 18 7 128 -86 128
-109 0 -8 6 -14 14 -14 8 0 22 -3 32 -7 14 -5 16 -2 12 15 -4 15 -2 19 8 15 8
-3 14 -9 14 -15 0 -5 5 -6 10 -3 6 3 10 3 10 -2 0 -4 -18 -16 -39 -26 -22 -10
-78 -42 -126 -72 -48 -30 -93 -55 -100 -55 -9 0 -15 -28 -20 -92 -6 -89 -22
-182 -24 -145 -1 9 -6 17 -12 17 -6 0 -9 -7 -6 -15 7 -16 -57 16 -83 42 -8 9
-9 13 -3 9 9 -5 11 -2 7 8 -3 9 -9 14 -13 12 -11 -7 1 103 12 112 7 5 25 13
41 19 l28 9 -58 38 c-32 20 -51 29 -41 18 22 -24 22 -31 -3 -25 -20 5 -109
-32 -122 -51 -16 -24 -20 31 -8 111 13 88 9 107 -15 82 -10 -10 -17 -46 -22
-112 l-6 -97 -23 37 c-18 30 -24 34 -24 18 l-1 -20 -9 20 c-7 17 -9 16 -10
-10 -2 -16 -2 -33 -1 -37 0 -5 -3 -8 -8 -8 -4 0 -11 51 -15 113 -3 61 -9 126
-12 144 -6 30 -3 33 44 57 53 27 145 94 256 188 67 56 71 57 93 42 13 -8 46
-28 73 -44z m158 36 c-2 0 -14 -10 -27 -21 l-24 -20 18 27 c9 15 21 25 27 22
5 -3 8 -7 6 -8z m-3543 -26 c28 -10 43 -19 35 -19 -14 0 -101 36 -90 38 3 1
28 -8 55 -19z m4421 -37 c20 -31 71 -102 113 -157 94 -124 115 -157 104 -165
-19 -13 -40 -105 -32 -135 7 -24 5 -34 -13 -53 l-21 -23 -50 66 -51 65 -26
-28 c-15 -15 -25 -33 -23 -38 3 -10 -8 -27 -74 -115 -24 -31 -33 -54 -33 -82
0 -24 5 -38 13 -38 9 0 8 -3 -2 -9 -9 -6 -12 -22 -9 -50 2 -27 -1 -41 -8 -41
-6 0 -17 -7 -24 -15 -8 -9 -8 -15 -2 -15 6 0 12 6 15 13 8 23 20 -2 21 -46 1
-35 7 -49 31 -72 24 -22 25 -24 5 -11 -62 40 -68 40 -125 -9 -58 -49 -56 -50
-95 23 -15 25 -29 41 -37 38 -25 -10 -12 14 43 78 30 36 66 69 80 72 13 3 24
12 24 20 0 7 7 17 16 22 26 15 -72 41 -115 31 -20 -5 -53 -9 -73 -9 -58 0 -86
-46 -91 -151 -1 -21 -5 -35 -9 -33 -4 3 -6 45 -5 94 2 101 -3 112 -69 135 -29
11 -33 14 -16 15 13 0 32 -5 43 -10 12 -7 19 -7 19 -1 0 22 -99 99 -108 85
-11 -16 -44 -26 -40 -12 7 19 149 180 188 212 19 17 30 24 23 16 -12 -13 11
-52 62 -104 l20 -21 -3 123 -2 122 101 98 c56 53 118 114 138 134 20 21 41 38
48 38 7 0 29 -26 49 -57z m858 42 c-10 -8 -23 -15 -28 -15 -6 0 -1 7 10 15 10
8 23 15 28 15 6 0 1 -7 -10 -15z m1446 -45 c-19 -11 -39 -19 -45 -19 -5 0 6 8
25 19 19 11 40 19 45 19 6 0 -6 -8 -25 -19z m-1592 -33 c-43 -24 -81 -47 -85
-52 -5 -4 -3 -5 4 -1 12 6 40 -31 35 -46 -4 -15 110 -8 171 11 109 34 116 35
72 7 -42 -26 -29 -35 22 -15 15 7 37 13 48 14 41 4 91 17 189 46 54 16 101 27
103 25 3 -2 -4 -7 -14 -9 -10 -3 -63 -19 -118 -36 -252 -77 -331 -92 -500 -97
-171 -6 -276 3 -283 24 -2 6 3 12 10 12 21 0 242 83 328 123 103 49 111 45 18
-6z m-2490 -53 c12 -14 19 -31 15 -37 -5 -8 -8 -8 -11 1 -3 9 -12 6 -31 -7
-15 -11 -39 -23 -54 -26 -15 -4 -27 -13 -27 -21 0 -16 -31 -34 -59 -34 -11 0
-28 11 -39 25 -11 14 -27 25 -36 25 -25 0 -32 48 -10 70 52 51 208 53 252 4z
m1020 -30 c67 -31 122 -61 122 -66 0 -4 -25 -20 -55 -34 -31 -15 -58 -30 -61
-35 -8 -13 -24 -11 -24 4 0 6 -34 46 -75 89 -41 42 -75 82 -75 88 0 9 4 9 17
-1 15 -12 16 -12 10 5 -9 22 -19 25 141 -50z m1752 32 c0 -2 -9 -6 -20 -9 -11
-3 -18 -1 -14 4 5 9 34 13 34 5z m-3593 -113 c-3 -10 -5 -4 -5 12 0 17 2 24 5
18 2 -7 2 -21 0 -30z m96 30 c-7 -2 -19 -2 -25 0 -7 3 -2 5 12 5 14 0 19 -2
13 -5z m785 -47 c2 -10 1 -37 -2 -61 -5 -32 -13 -45 -32 -54 -32 -14 -210 -14
-272 0 -77 18 -79 19 -62 29 8 6 10 10 4 10 -7 0 -14 16 -16 35 -2 19 0 35 4
35 4 0 8 -3 8 -7 0 -5 12 -9 28 -10 15 -1 55 -5 88 -9 64 -7 157 13 199 42 26
18 49 14 53 -10z m-498 -31 c-7 -8 -20 -15 -29 -14 -11 0 -9 3 7 9 12 5 22 15
22 21 0 7 3 9 6 6 4 -4 1 -13 -6 -22z m1559 -37 l-1 -63 -9 50 c-8 47 -6 75 6
75 3 0 4 -28 4 -62z m-1941 -19 c-5 -4 -3 -9 6 -12 9 -4 17 1 21 13 6 19 7 19
41 -1 41 -23 162 -60 219 -66 58 -7 73 -23 40 -41 -38 -20 -24 -26 19 -8 45
19 46 14 4 -11 -38 -22 -97 -39 -188 -53 -36 -6 -81 -14 -100 -19 l-35 -9 30
-1 c24 -1 27 -3 13 -11 -10 -6 -31 -7 -55 -1 -21 5 -31 10 -23 10 19 2 -46 31
-69 31 -14 0 -14 -2 -1 -10 19 -12 -3 -14 -28 -2 -161 78 -172 87 -172 131 0
39 42 74 122 99 97 32 100 32 135 -2 17 -17 27 -34 21 -37z m1873 18 c-6 -6
-11 -28 -11 -48 0 -20 -6 -42 -14 -48 -12 -10 -14 -3 -11 46 2 32 4 61 4 65 1
10 36 15 40 5 2 -5 -2 -14 -8 -20z m-67 -44 c8 -47 -8 -168 -22 -165 -7 1 -31
-10 -53 -24 -23 -14 -38 -21 -34 -15 3 6 20 18 37 27 21 11 27 18 19 24 -9 5
-8 9 5 14 14 5 16 16 12 70 -5 60 3 96 22 96 4 0 11 -12 14 -27z m-1554 -8
l45 -15 -39 4 c-22 3 -44 10 -50 16 -13 13 -10 13 44 -5z m2790 -16 c-33 -20
-120 -56 -108 -44 11 11 114 62 128 64 8 0 -1 -9 -20 -20z m-2079 -50 c77 -42
140 -111 167 -187 30 -80 29 -92 -7 -92 -28 0 -30 3 -42 58 -7 31 -18 60 -25
65 -7 4 -23 25 -35 46 -12 22 -32 45 -45 52 -13 7 -24 19 -24 27 0 10 -5 8
-17 -7 -20 -23 -184 -81 -231 -81 -16 0 -34 -6 -40 -12 -6 -7 -13 -59 -17
-115 l-8 -103 -34 0 c-19 0 -62 11 -96 24 -34 13 -74 27 -89 30 -17 4 -28 13
-28 23 0 9 -8 22 -17 29 -15 11 -10 13 38 8 l57 -6 15 49 c21 64 40 161 33
171 -2 4 -1 14 3 21 6 10 11 9 24 -3 21 -21 58 -22 51 -1 -6 14 35 19 168 19
9 0 15 3 12 7 -7 12 27 18 79 14 28 -3 72 -17 108 -36z m475 -37 c-4 -3 -14 2
-24 12 -16 18 -16 18 6 6 13 -6 21 -14 18 -18z m-936 14 c0 -2 -7 -7 -16 -10
-8 -3 -12 -2 -9 4 6 10 25 14 25 6z m1060 -11 c-7 -9 -15 -13 -17 -11 -7 7 7
26 19 26 6 0 6 -6 -2 -15z m1382 -51 l27 -43 111 39 c61 22 114 40 118 40 16
-1 -35 -24 -124 -55 -52 -18 -98 -35 -101 -38 -3 -3 4 -21 16 -40 35 -57 41
-53 -117 -72 l-53 -7 15 37 c20 47 20 46 -7 36 -46 -18 -46 2 0 85 41 76 45
81 66 71 12 -5 34 -30 49 -53z m-2486 30 c-3 -8 -11 -45 -16 -81 -12 -74 -16
-83 -33 -83 -8 0 -8 3 1 9 10 6 4 10 -18 14 -26 6 -30 10 -25 27 4 11 2 20 -4
20 -6 0 -11 -4 -11 -10 0 -5 -6 -10 -12 -10 -7 1 -3 9 9 19 12 10 19 22 15 25
-6 7 76 85 92 86 4 0 5 -7 2 -16z m3496 -74 l-7 -44 -237 -94 -237 -93 -34 38
c-96 107 -113 142 -80 163 12 8 13 10 3 7 -62 -18 -66 -19 -45 -6 22 14 235
99 248 99 8 0 -13 -41 -26 -51 -9 -7 45 -110 68 -129 9 -7 19 -8 32 -1 10 5
58 28 108 51 134 62 205 107 206 133 2 19 3 18 6 -3 2 -14 0 -45 -5 -70z
m-2072 3 c0 -5 -14 -9 -31 -10 -18 -1 -39 -8 -48 -16 -19 -16 -174 -104 -250
-142 -51 -25 -53 -28 -49 -61 5 -42 -4 -43 -62 -4 -25 17 -64 39 -87 50 -24
10 -43 21 -43 24 0 9 107 -41 141 -65 29 -20 31 -21 27 -3 -2 11 -13 20 -27
22 -13 2 -25 11 -28 21 -2 9 -21 26 -41 37 -49 26 -188 134 -172 134 7 0 45
-18 84 -39 39 -22 91 -50 116 -63 25 -13 54 -30 65 -37 18 -12 37 -4 171 67
83 44 159 82 170 85 31 8 64 8 64 0z m-1750 -44 c0 -5 8 -10 18 -10 9 -1 -5
-5 -33 -9 -100 -15 -218 4 -191 31 9 8 206 -3 206 -12z m3560 11 c13 -9 13
-10 0 -10 -12 -1 -11 -4 4 -15 18 -14 18 -15 -8 -25 -44 -16 -58 -13 -50 12 7
22 25 47 34 47 3 1 12 -4 20 -9z m-3855 -19 c41 -15 161 -35 270 -46 17 -1 19
-8 16 -36 -1 -19 -8 -37 -15 -41 -18 -12 -65 -9 -155 9 -76 16 -85 20 -93 45
-6 16 -15 28 -20 28 -6 0 -4 -7 3 -17 12 -14 12 -16 -1 -11 -26 8 -24 38 2 39
17 0 10 6 -27 24 -61 28 -49 32 20 6z m-745 -51 c8 -5 11 -10 5 -10 -5 0 -17
5 -25 10 -8 5 -10 10 -5 10 6 0 17 -5 25 -10z m176 -59 c104 -33 307 -112 302
-116 -3 -4 -390 134 -397 141 -8 8 6 4 95 -25z m3453 -6 c25 -9 54 -27 64 -41
l18 -25 -52 -47 c-56 -51 -69 -59 -69 -44 0 6 8 13 18 15 13 4 13 5 -4 6 -14
1 -24 -6 -27 -20 -4 -13 -10 -18 -18 -13 -9 5 -11 1 -6 -15 7 -26 -28 -70 -37
-46 -2 7 2 16 10 19 18 7 18 21 -2 40 -12 13 -13 17 -2 20 39 13 41 15 16 16
-16 2 -32 4 -38 5 -5 1 -14 3 -20 4 -10 1 -15 143 -5 153 8 7 100 -9 154 -27z
m-814 -6 c-4 -5 1 -9 9 -9 9 0 16 -8 16 -19 0 -11 3 -26 6 -34 8 -22 -22 -28
-46 -9 -18 15 -19 21 -8 54 6 21 15 35 20 32 4 -3 6 -10 3 -15z m-758 -51 c-2
-13 -4 -3 -4 22 0 25 2 35 4 23 2 -13 2 -33 0 -45z m523 57 c0 -2 -10 -9 -22
-15 -22 -11 -22 -10 -4 4 21 17 26 19 26 11z m601 -26 c-17 -16 -25 -18 -36
-9 -8 6 -19 9 -25 5 -5 -3 -10 1 -10 9 0 12 11 16 47 16 l47 0 -23 -21z
m-2207 -14 c22 0 41 -6 44 -13 2 -8 -2 -10 -14 -5 -11 4 -15 3 -10 -5 3 -6 -4
-18 -16 -26 -22 -16 -22 -16 10 -16 37 0 43 -15 10 -24 -54 -14 -167 3 -188
29 -9 11 -4 12 25 5 35 -8 50 5 20 16 -8 4 -15 12 -15 20 0 8 -8 14 -17 14
-16 0 -16 2 -3 10 9 6 36 8 65 4 28 -4 68 -8 89 -9z m227 -52 c-9 -15 -10 -12
-10 17 0 29 1 32 10 18 7 -12 7 -24 0 -35z m1284 37 c-3 -5 -12 -10 -18 -10
-7 0 -6 4 3 10 19 12 23 12 15 0z m-1690 -10 c8 -13 -25 -13 -45 0 -12 8 -9
10 12 10 15 0 30 -4 33 -10z m2445 -15 c-7 -8 -17 -12 -22 -9 -6 4 -5 10 3 15
22 14 33 10 19 -6z m1120 10 c0 -5 -69 -35 -79 -34 -5 0 68 38 77 39 1 0 2 -2
2 -5z m-2313 -37 c-3 -8 -6 -5 -6 6 -1 11 2 17 5 13 3 -3 4 -12 1 -19z m1793
-2 c0 -3 -4 -8 -10 -11 -5 -3 -10 -1 -10 4 0 6 5 11 10 11 6 0 10 -2 10 -4z
m-999 -23 c13 -16 12 -17 -3 -4 -10 7 -18 15 -18 17 0 8 8 3 21 -13z m1122 2
c10 -1 22 -8 27 -15 7 -11 -16 -24 -98 -57 l-107 -43 -17 21 c-26 32 -21 46
15 40 4 -1 15 5 23 14 9 8 22 15 29 15 8 0 19 9 25 20 9 17 17 20 48 14 20 -4
45 -8 55 -9z m237 -5 c-8 -5 -19 -10 -25 -10 -5 0 -3 5 5 10 8 5 20 10 25 10
6 0 3 -5 -5 -10z m-3630 -4 c0 -11 -19 -15 -25 -6 -3 5 1 10 9 10 9 0 16 -2
16 -4z m2339 -39 c-1 -16 -3 -17 -6 -5 -2 9 -10 15 -18 12 -7 -3 -16 0 -21 7
-5 9 -2 10 9 6 10 -3 17 -2 17 4 0 6 5 7 10 4 6 -3 9 -16 9 -28z m587 -77 c5
-32 3 -42 -4 -35 -6 6 -14 30 -18 55 -5 32 -3 42 4 35 6 -5 14 -30 18 -55z
m-673 -52 c2 -7 -3 -19 -12 -26 -14 -12 -14 -13 4 -7 11 3 34 8 50 11 28 4 27
3 -10 -16 -101 -50 -202 -93 -218 -92 -9 0 -15 -3 -12 -8 3 -6 -1 -7 -9 -4 -8
3 -48 -10 -90 -30 l-76 -35 0 -75 c0 -42 -2 -76 -5 -76 -3 0 -13 4 -23 10 -9
5 -105 51 -212 102 -272 130 -272 130 -237 123 17 -4 26 -2 23 4 -4 5 8 13 26
17 29 6 31 8 13 16 -14 5 -7 7 20 3 l40 -5 -23 19 c-14 13 -19 22 -12 26 6 4
14 15 18 25 6 16 25 10 172 -61 91 -43 172 -79 181 -79 8 0 96 38 195 85 98
46 182 84 186 85 3 0 8 -6 11 -12z m-2078 -126 c-3 -3 -11 0 -18 7 -9 10 -8
11 6 5 10 -3 15 -9 12 -12z m95 -29 c30 -11 31 -12 6 -8 -16 4 -43 13 -60 20
-23 11 -25 13 -6 8 14 -3 41 -12 60 -20z m2010 -5 c-304 -140 -371 -170 -376
-166 -6 6 411 196 431 196 6 0 -19 -13 -55 -30z m-2176 -34 c3 -8 2 -12 -4 -9
-6 3 -10 10 -10 16 0 14 7 11 14 -7z m104 -47 c2 -9 -2 -17 -9 -17 -7 0 -9 3
-6 7 4 3 1 13 -6 21 -10 13 -9 14 3 10 8 -2 16 -12 18 -21z m262 13 c8 -5 11
-10 5 -10 -5 0 -17 5 -25 10 -8 5 -10 10 -5 10 6 0 17 -5 25 -10z m-230 -39
c0 -5 -7 -12 -16 -15 -14 -5 -15 -4 -4 9 14 17 20 19 20 6z m330 -6 c17 -9 30
-17 30 -20 0 -7 -60 16 -66 26 -8 13 3 11 36 -6z m990 -170 c25 -13 41 -24 35
-24 -5 0 -30 11 -55 24 -25 13 -40 24 -35 24 6 0 30 -11 55 -24z m225 -33 c-3
-3 -11 0 -18 7 -9 10 -8 11 6 5 10 -3 15 -9 12 -12z m-35 -46 c68 -28 119 -51
114 -53 -10 -3 -211 78 -242 98 -24 15 -9 10 128 -45z m86 28 c18 -14 18 -14
-6 -3 -31 14 -36 19 -24 19 6 0 19 -7 30 -16z"/>
<path d="M6680 7901 c0 -5 5 -13 10 -16 6 -3 10 -2 10 4 0 5 -4 13 -10 16 -5
3 -10 2 -10 -4z"/>
<path d="M6486 7030 c-22 -56 -19 -65 5 -11 11 24 18 46 15 48 -2 2 -11 -14
-20 -37z"/>
<path d="M6482 6845 c-12 -14 -18 -25 -13 -25 11 0 45 39 39 45 -2 3 -14 -6
-26 -20z"/>
<path d="M6537 6746 c-4 -10 -5 -21 -2 -24 9 -9 17 6 13 25 -3 17 -4 17 -11
-1z"/>
<path d="M6269 6649 c27 -22 49 -26 32 -5 -6 8 -22 16 -34 19 -22 6 -22 6 2
-14z"/>
<path d="M8080 7799 c-30 -11 -60 -25 -67 -32 -11 -11 -6 -13 27 -12 31 0 40
4 40 18 0 9 6 17 13 17 18 1 74 28 57 28 -8 1 -40 -8 -70 -19z"/>
<path d="M7956 7721 c-8 -13 17 -65 32 -68 6 -2 12 4 12 12 0 8 -6 15 -12 15
-8 0 -6 5 4 11 12 7 28 5 54 -6 64 -27 61 -16 -4 15 -69 32 -78 35 -86 21z"/>
<path d="M8140 7655 c0 -5 80 -45 89 -45 8 1 -73 50 -81 50 -5 0 -8 -2 -8 -5z"/>
<path d="M8214 7559 c-19 -22 -19 -22 4 -10 12 6 22 16 22 21 0 15 -5 12 -26
-11z"/>
<path d="M8010 7566 c0 -3 9 -10 20 -16 11 -6 20 -8 20 -6 0 3 -9 10 -20 16
-11 6 -20 8 -20 6z"/>
<path d="M5044 7828 c4 -22 9 -45 12 -49 7 -11 53 15 71 41 12 18 17 19 25 9
8 -12 9 -11 6 1 -4 12 -80 39 -112 40 -5 0 -6 -19 -2 -42z"/>
<path d="M4680 7773 c0 -5 4 -13 8 -20 6 -9 11 -7 20 7 11 17 10 20 -8 20 -11
0 -20 -3 -20 -7z"/>
<path d="M3917 7523 c-16 -16 -4 -46 39 -94 25 -28 45 -45 44 -38 -5 30 1 35
36 34 28 -2 38 2 44 19 7 17 9 18 9 4 1 -21 21 -25 21 -5 0 19 -39 54 -82 72
-38 15 -99 20 -111 8z"/>
<path d="M4080 7400 c0 -5 5 -10 10 -10 6 0 10 5 10 10 0 6 -4 10 -10 10 -5 0
-10 -4 -10 -10z"/>
<path d="M4230 7375 c-7 -8 -9 -15 -6 -15 4 0 14 7 22 15 9 8 11 15 6 15 -5 0
-15 -7 -22 -15z"/>
<path d="M4121 7339 c1 -30 13 -47 25 -35 7 8 5 17 -8 30 -13 14 -18 16 -17 5z"/>
<path d="M6250 7502 c0 -12 19 -26 26 -19 2 2 -2 10 -11 17 -9 8 -15 8 -15 2z"/>
<path d="M6073 7316 c4 -10 7 -22 7 -27 0 -5 4 -9 9 -9 12 0 2 38 -12 47 -7 4
-8 0 -4 -11z"/>
<path d="M5206 7365 c-4 -12 -1 -24 9 -34 13 -13 15 -13 14 -1 0 8 -4 24 -8
34 -7 19 -8 19 -15 1z"/>
<path d="M5248 7322 c-4 -14 2 -17 29 -17 18 0 33 1 33 2 0 1 -13 9 -29 17
-26 14 -29 14 -33 -2z"/>
<path d="M2480 7197 l-55 -12 -3 -45 c-4 -54 -16 -70 -53 -70 -46 0 -62 -25
-55 -88 10 -85 16 -92 80 -85 l54 6 13 -57 c11 -50 14 -56 33 -50 12 4 43 13
70 20 27 7 53 17 58 22 5 5 4 31 -3 62 -13 60 -6 70 49 70 l32 0 0 60 c0 91
-37 117 -112 78 -16 -8 -18 -3 -18 35 0 38 -14 69 -29 66 -4 0 -31 -6 -61 -12z
m127 -113 c-3 -3 -12 -4 -19 -1 -8 3 -5 6 6 6 11 1 17 -2 13 -5z"/>
<path d="M2498 6653 c7 -3 16 -2 19 1 4 3 -2 6 -13 5 -11 0 -14 -3 -6 -6z"/>
<path d="M4670 7306 c0 -2 9 -6 20 -9 11 -3 20 -1 20 4 0 5 -9 9 -20 9 -11 0
-20 -2 -20 -4z"/>
<path d="M7766 7065 c4 -8 8 -15 10 -15 2 0 4 7 4 15 0 8 -4 15 -10 15 -5 0
-7 -7 -4 -15z"/>
<path d="M1670 6851 c0 -6 4 -13 10 -16 6 -3 7 1 4 9 -7 18 -14 21 -14 7z"/>
<path d="M1736 6707 c3 -10 9 -15 12 -12 3 3 0 11 -7 18 -10 9 -11 8 -5 -6z"/>
<path d="M1791 6595 c0 -5 6 -21 14 -35 8 -14 14 -20 14 -15 0 6 -6 21 -14 35
-8 14 -14 21 -14 15z"/>
<path d="M1880 6398 c0 -27 102 -247 107 -231 2 6 -7 29 -20 50 -13 21 -36 71
-51 111 -23 59 -36 85 -36 70z"/>
<path d="M1538 6344 c-38 -20 -36 -28 2 -9 17 9 30 18 30 20 0 7 -1 6 -32 -11z"/>
<path d="M1721 6340 c-1 -3 22 -62 50 -130 28 -69 56 -139 63 -157 l12 -32 63
63 c49 50 62 68 56 83 -5 12 -9 14 -12 6 -6 -16 -95 -17 -110 -2 -9 9 -11 0
-9 -36 l3 -47 -18 33 c-10 19 -19 41 -19 49 -1 15 -78 179 -79 170z"/>
<path d="M7240 6746 c0 -4 59 -36 67 -36 1 0 3 5 3 10 0 6 -7 10 -15 10 -8 0
-15 5 -15 10 0 6 -9 10 -20 10 -11 0 -20 -2 -20 -4z"/>
<path d="M6940 6471 c0 -6 4 -13 10 -16 6 -3 7 1 4 9 -7 18 -14 21 -14 7z"/>
<path d="M5400 5458 c0 -62 9 -59 15 5 3 28 1 47 -5 47 -6 0 -10 -23 -10 -52z"/>
<path d="M5232 5330 c0 -14 2 -19 5 -12 2 6 2 18 0 25 -3 6 -5 1 -5 -13z"/>
<path d="M4560 5680 l0 -260 50 0 c115 0 130 29 130 258 0 98 -5 182 -11 201
-14 40 -54 61 -119 61 l-50 0 0 -260z"/>
<path d="M5920 5797 l0 -123 66 7 c38 4 72 13 81 22 21 21 28 102 14 154 -13
46 -15 48 -108 57 l-53 5 0 -122z"/>
<path d="M6601 5703 c-18 -70 -37 -142 -41 -160 l-8 -32 75 -6 c40 -4 77 -5
80 -2 3 4 -10 71 -30 149 -20 79 -37 151 -39 161 -2 10 -18 -40 -37 -110z"/>
<path d="M5853 5643 c9 -2 25 -2 35 0 9 3 1 5 -18 5 -19 0 -27 -2 -17 -5z"/>
<path d="M6720 5583 c0 -12 3 -14 8 -6 4 6 28 13 52 16 l45 4 -52 1 c-45 2
-53 -1 -53 -15z"/>
<path d="M5883 5555 c0 -22 2 -30 4 -17 2 12 2 30 0 40 -3 9 -5 -1 -4 -23z"/>
<path d="M6732 5540 c0 -14 2 -19 5 -12 2 6 2 18 0 25 -3 6 -5 1 -5 -13z"/>
<path d="M6030 5429 c0 -4 11 -31 25 -60 14 -30 22 -43 19 -29 -7 26 -43 100
-44 89z"/>
<path d="M5883 5345 c0 -38 2 -53 4 -32 2 20 2 52 0 70 -2 17 -4 1 -4 -38z"/>
<path d="M5751 5384 c0 -11 3 -14 6 -6 3 7 2 16 -1 19 -3 4 -6 -2 -5 -13z"/>
<path d="M6081 5294 c0 -11 3 -14 6 -6 3 7 2 16 -1 19 -3 4 -6 -2 -5 -13z"/>
<path d="M6781 5254 c0 -11 3 -14 6 -6 3 7 2 16 -1 19 -3 4 -6 -2 -5 -13z"/>
<path d="M5818 5253 c7 -3 16 -2 19 1 4 3 -2 6 -13 5 -11 0 -14 -3 -6 -6z"/>
<path d="M6173 5233 c15 -2 37 -2 50 0 12 2 0 4 -28 4 -27 0 -38 -2 -22 -4z"/>
<path d="M6358 5223 c6 -2 18 -2 25 0 6 3 1 5 -13 5 -14 0 -19 -2 -12 -5z"/>
<path d="M6418 5223 c12 -2 30 -2 40 0 9 3 -1 5 -23 4 -22 0 -30 -2 -17 -4z"/>
<path d="M7236 5608 c3 -117 7 -236 10 -265 l5 -52 54 -6 c117 -15 129 8 120
238 -3 95 -8 187 -11 205 -7 45 -37 69 -98 77 -28 4 -59 9 -68 11 -16 5 -17
-10 -12 -208z"/>
<path d="M7473 5513 c9 -2 25 -2 35 0 9 3 1 5 -18 5 -19 0 -27 -2 -17 -5z"/>
<path d="M7567 5503 c14 -3 23 -13 26 -31 4 -24 4 -24 6 6 1 29 -2 32 -26 31
-23 -1 -24 -2 -6 -6z"/>
<path d="M7072 5325 c0 -16 2 -22 5 -12 2 9 2 23 0 30 -3 6 -5 -1 -5 -18z"/>
<path d="M7215 5270 c3 -5 8 -10 11 -10 2 0 4 5 4 10 0 6 -5 10 -11 10 -5 0
-7 -4 -4 -10z"/>
<path d="M7420 5273 c0 -6 -15 -15 -32 -21 -23 -7 -27 -10 -12 -11 24 -1 62
24 51 35 -4 4 -7 3 -7 -3z"/>
<path d="M7298 5243 c12 -2 30 -2 40 0 9 3 -1 5 -23 4 -22 0 -30 -2 -17 -4z"/>
<path d="M7126 5161 c13 -15 309 -27 341 -15 13 6 -40 10 -145 11 -91 2 -175
6 -186 9 -16 5 -18 3 -10 -5z"/>
<path d="M7763 5483 c9 -2 25 -2 35 0 9 3 1 5 -18 5 -19 0 -27 -2 -17 -5z"/>
<path d="M7762 5204 c-1 -67 2 -105 11 -116 12 -15 212 -57 222 -46 3 3 -42
15 -100 26 -58 11 -109 23 -113 27 -4 4 -10 52 -13 108 l-6 102 -1 -101z"/>
<path d="M7930 5186 c0 -2 7 -7 16 -10 8 -3 12 -2 9 4 -6 10 -25 14 -25 6z"/>
<path d="M8008 5163 c7 -3 16 -2 19 1 4 3 -2 6 -13 5 -11 0 -14 -3 -6 -6z"/>
<path d="M8048 5153 c7 -3 16 -2 19 1 4 3 -2 6 -13 5 -11 0 -14 -3 -6 -6z"/>
<path d="M8295 5001 c-4 -13 -13 -17 -33 -15 -27 4 -27 4 2 -6 17 -5 31 -8 32
-7 5 7 14 47 10 47 -2 0 -7 -8 -11 -19z"/>
<path d="M8175 5000 c11 -5 27 -9 35 -9 9 0 8 4 -5 9 -11 5 -27 9 -35 9 -9 0
-8 -4 5 -9z"/>
<path d="M1471 5214 c0 -11 3 -14 6 -6 3 7 2 16 -1 19 -3 4 -6 -2 -5 -13z"/>
<path d="M8762 4990 c0 -14 2 -19 5 -12 2 6 2 18 0 25 -3 6 -5 1 -5 -13z"/>
<path d="M8745 4930 c-3 -5 -1 -10 4 -10 6 0 11 5 11 10 0 6 -2 10 -4 10 -3 0
-8 -4 -11 -10z"/>
<path d="M2503 4423 c9 -2 23 -2 30 0 6 3 -1 5 -18 5 -16 0 -22 -2 -12 -5z"/>
<path d="M4918 4963 c6 -2 18 -2 25 0 6 3 1 5 -13 5 -14 0 -19 -2 -12 -5z"/>
<path d="M3951 4846 c2 -2 31 -6 64 -9 39 -4 51 -3 35 2 -25 9 -107 15 -99 7z"/>
<path d="M3647 4814 c-62 -32 -60 -38 6 -12 28 11 61 23 72 28 18 6 17 7 -5 7
-14 0 -47 -10 -73 -23z"/>
<path d="M4880 4556 c0 -2 8 -10 18 -17 15 -13 16 -12 3 4 -13 16 -21 21 -21
13z"/>
<path d="M6312 4372 c-7 -15 -9 -28 -4 -30 5 -1 6 -16 4 -32 -3 -22 0 -30 11
-30 12 0 14 13 13 60 0 33 -3 60 -6 60 -3 0 -11 -12 -18 -28z"/>
<path d="M5815 4280 c3 -5 8 -10 11 -10 2 0 4 5 4 10 0 6 -5 10 -11 10 -5 0
-7 -4 -4 -10z"/>
<path d="M3470 4420 l-45 -7 48 -1 c26 -1 47 3 47 8 0 6 -1 9 -2 8 -2 0 -23
-4 -48 -8z"/>
<path d="M3310 4391 c0 -13 48 -46 56 -38 3 2 -9 15 -25 27 -17 12 -31 17 -31
11z"/>
<path d="M4000 4110 c0 -5 5 -10 10 -10 6 0 10 5 10 10 0 6 -4 10 -10 10 -5 0
-10 -4 -10 -10z"/>
<path d="M6985 4251 c-22 -11 -32 -20 -23 -20 9 -1 20 4 23 9 4 6 10 8 14 5 5
-2 17 2 27 10 27 20 6 18 -41 -4z"/>
<path d="M6955 4140 c10 -11 20 -20 22 -20 2 0 -1 9 -7 20 -6 11 -16 20 -22
20 -6 0 -3 -9 7 -20z"/>
<path d="M7040 4090 c0 -5 5 -10 11 -10 5 0 7 5 4 10 -3 6 -8 10 -11 10 -2 0
-4 -4 -4 -10z"/>
<path d="M7850 3960 c0 -5 5 -10 11 -10 5 0 7 5 4 10 -3 6 -8 10 -11 10 -2 0
-4 -4 -4 -10z"/>
<path d="M7285 3930 l-30 -8 27 -1 c15 0 30 4 33 9 3 6 5 9 3 9 -2 -1 -16 -5
-33 -9z"/>
<path d="M7280 3894 c0 -8 5 -12 10 -9 6 4 8 11 5 16 -9 14 -15 11 -15 -7z"/>
<path d="M2970 3805 c0 -8 2 -15 4 -15 2 0 6 7 10 15 3 8 1 15 -4 15 -6 0 -10
-7 -10 -15z"/>
<path d="M3138 3758 c5 -5 16 -8 23 -6 8 3 3 7 -10 11 -17 4 -21 3 -13 -5z"/>
<path d="M3187 3739 c7 -7 15 -10 18 -7 3 3 -2 9 -12 12 -14 6 -15 5 -6 -5z"/>
<path d="M3227 3729 c7 -7 15 -10 18 -7 3 3 -2 9 -12 12 -14 6 -15 5 -6 -5z"/>
<path d="M3155 3690 c-3 -5 -1 -10 4 -10 6 0 11 5 11 10 0 6 -2 10 -4 10 -3 0
-8 -4 -11 -10z"/>
<path d="M6643 3611 c-72 -31 -85 -41 -55 -41 12 0 22 4 22 9 0 5 23 7 50 6
28 -2 50 1 50 7 0 6 7 8 15 4 8 -3 18 2 23 11 6 9 15 13 21 8 9 -5 8 -12 -5
-26 -10 -11 -19 -30 -21 -42 -2 -12 -8 -23 -13 -25 -14 -5 -12 -21 4 -38 10
-9 17 -10 21 -4 4 6 10 8 14 6 4 -3 20 4 37 15 16 10 25 19 20 19 -5 0 -3 6 3
13 6 8 7 18 3 22 -4 5 1 5 10 2 10 -3 20 -2 24 4 3 6 12 3 21 -8 10 -13 13
-14 10 -3 -2 8 3 23 12 34 15 18 14 18 -28 11 -28 -5 -41 -4 -37 3 10 17 -17
28 -71 28 -28 -1 -49 2 -46 7 8 13 -21 6 -84 -22z"/>
<path d="M6533 3564 c-13 -6 -6 -34 8 -34 4 0 5 7 2 17 -4 11 -3 14 5 9 7 -4
12 -2 12 3 0 12 -7 13 -27 5z"/>
<path d="M6686 3534 c-3 -7 2 -10 15 -7 22 6 26 20 4 20 -8 0 -16 -6 -19 -13z"/>
<path d="M3865 3430 c3 -5 10 -10 16 -10 5 0 9 5 9 10 0 6 -7 10 -16 10 -8 0
-12 -4 -9 -10z"/>
<path d="M3925 3420 c3 -5 8 -10 11 -10 2 0 4 5 4 10 0 6 -5 10 -11 10 -5 0
-7 -4 -4 -10z"/>
</g>
</svg>
